<svg width="53" height="45" viewBox="0 0 53 45" fill="none" xmlns="http://www.w3.org/2000/svg">
<path d="M52.5323 35.0919C52.9999 35.3859 53.1405 36.0032 52.8465 36.4707L48.0555 44.0895C47.7615 44.557 47.1441 44.6977 46.6766 44.4037C46.2091 44.1097 46.0684 43.4923 46.3624 43.0248L50.6211 36.2526L43.8489 31.9938C43.3814 31.6998 43.2407 31.0825 43.5347 30.615C43.8287 30.1475 44.446 30.0068 44.9136 30.3008L52.5323 35.0919ZM1.00376 2.08684L0.917053 1.0906L2.90952 0.917184L2.99623 1.91342L1.00376 2.08684ZM52.2222 36.9134C30.0395 41.968 3.36008 29.1596 1.00376 2.08684L2.99623 1.91342C5.22006 27.464 30.4491 39.8234 51.7778 34.9634L52.2222 36.9134Z" fill="url(#paint0_linear)"/>
<defs>
<linearGradient id="paint0_linear" x1="50.855" y1="38.6077" x2="4.32069" y2="3.86577" gradientUnits="userSpaceOnUse">
<stop stop-color="#E1BF88"/>
<stop offset="1" stop-color="#E1BF88" stop-opacity="0"/>
</linearGradient>
</defs>
</svg>
